<?xml version="1.0" encoding="UTF-8"?>
<svg xmlns="http://www.w3.org/2000/svg" version="1.1" viewBox="0 0 95 125">
  <defs>
    <style>
      .cls-1 {
        fill: #98bc83;
      }

      .cls-2 {
        fill: #749f60;
      }
    </style>
  </defs>
  <!-- Generator: Adobe Illustrator 28.7.1, SVG Export Plug-In . SVG Version: 1.2.0 Build 142)  -->
  <g>
    <g id="Layer_1">
      <path class="cls-1" d="M86.6,5.3c-3.5,1.5-4.7,5.7-7.1,8.5-4.6,5.3-10.3,9.5-16.1,13.4C27.8,46.8,10.6,82.9,6.3,118.6c-.1.7,0,1.7.9,1.6,1.8,0,5.5,0,7.3,0,15.9-12.3,31.4-27.2,40.9-45.2s12.6-14,10.9-9.8c-6.4,16.2-13.3,32.8-26.3,44.4s-6.9,6.2-10.7,9.1c-.4.3-1.4,1.3-1,1.5,2.7.1,14.7,0,18.1,0,4.1-.2,8.3-.8,11.9-1.2,8.1-.9,15.7-5.2,20.6-11.5,5.1-6.4,7.8-14.9,8-23.1.6-26.2.9-53-.2-79h0Z"/>
      <path class="cls-2" d="M27,121"/>
    </g>
  </g>
</svg>