<?xml version="1.0" encoding="UTF-8"?>
<svg xmlns="http://www.w3.org/2000/svg" version="1.1" viewBox="0 0 650 152">
  <defs>
    <style>
      .cls-1 {
        fill: #91c581;
      }

      .cls-1, .cls-2 {
        fill-rule: evenodd;
      }

      .cls-2, .cls-3 {
        fill: #394459;
      }
    </style>
  </defs>
  <!-- Generator: Adobe Illustrator 28.7.1, SVG Export Plug-In . SVG Version: 1.2.0 Build 142)  -->
  <g>
    <g id="Layer_1">
      <g>
        <path class="cls-3" d="M84.6,107.7H30.1c.5,6.2,2.5,11.2,6.1,14.9,3.6,3.6,8.2,5.5,13.8,5.5s8-1,10.9-3.1c2.8-2.1,6-5.9,9.6-11.6l14.8,8.3c-2.3,3.9-4.7,7.3-7.3,10-2.6,2.8-5.3,5.1-8.2,6.9-2.9,1.8-6.1,3.1-9.5,3.9-3.4.8-7.1,1.2-11,1.2-11.4,0-20.5-3.6-27.3-10.9-6.9-7.3-10.3-17.1-10.3-29.2s3.3-21.8,10-29.2c6.7-7.3,15.6-11,26.7-11s20.1,3.6,26.6,10.7c6.5,7.1,9.7,16.9,9.7,29.5v4.1ZM66.6,93.4c-2.4-9.4-8.4-14.1-17.7-14.1s-4.1.3-6,1c-1.9.7-3.6,1.6-5.1,2.8-1.5,1.2-2.9,2.7-3.9,4.4s-1.9,3.7-2.5,5.9h35.3Z"/>
        <path class="cls-3" d="M110.6,65.5l19.7,42.7,19.6-42.7h19.8l-39.5,81.3-39.2-81.3h19.7Z"/>
        <path class="cls-3" d="M199.1,65.5v76.1h-17.6v-76.1h17.6Z"/>
        <path class="cls-3" d="M277.4,9.7h17.7v132h-17.7v-8c-6.9,6.8-14.8,10.2-23.5,10.2s-19.1-3.8-25.9-11.4c-6.8-7.8-10.2-17.4-10.2-29.1s3.4-20.8,10.2-28.4c6.8-7.7,15.3-11.5,25.5-11.5s16.9,3.6,23.9,10.9V9.7ZM235.7,103.4c0,7.3,2,13.2,5.9,17.8,4,4.6,9.1,7,15.2,7s11.8-2.2,15.8-6.7c4-4.6,6-10.5,6-17.7s-2-13-6-17.7c-4-4.5-9.2-6.8-15.6-6.8s-11.1,2.3-15.2,6.9c-4,4.6-6,10.4-6,17.2Z"/>
        <path class="cls-3" d="M386.6,107.7h-54.5c.5,6.2,2.5,11.2,6.1,14.9,3.6,3.6,8.2,5.5,13.8,5.5s8-1,10.9-3.1c2.8-2.1,6-5.9,9.6-11.6l14.8,8.3c-2.3,3.9-4.7,7.3-7.3,10-2.6,2.8-5.3,5.1-8.2,6.9-2.9,1.8-6.1,3.1-9.5,3.9-3.4.8-7.1,1.2-11,1.2-11.4,0-20.5-3.6-27.3-10.9-6.9-7.3-10.3-17.1-10.3-29.2s3.3-21.8,10-29.2c6.7-7.3,15.6-11,26.7-11s20.1,3.6,26.6,10.7c6.5,7.1,9.7,16.9,9.7,29.5v4.1ZM368.5,93.4c-2.4-9.4-8.4-14.1-17.7-14.1s-4.1.3-6,1c-1.9.7-3.6,1.6-5.1,2.8-1.5,1.2-2.9,2.7-3.9,4.4s-1.9,3.7-2.5,5.9h35.3Z"/>
        <path class="cls-3" d="M405.8,65.5h17.7v7c6.1-6.1,13.1-9.1,20.8-9.1s15.8,2.8,20.7,8.4c4.3,4.7,6.4,12.5,6.4,23.2v46.6h-17.7v-42.5c0-7.5-1-12.7-3.1-15.5-2-2.9-5.7-4.4-11.1-4.4s-10,1.9-12.4,5.8c-2.4,3.8-3.6,10.4-3.6,19.9v36.7h-17.7v-76.1Z"/>
        <path class="cls-3" d="M552.7,68.8v23.4c-4-4.9-7.6-8.3-10.8-10.1-3.1-1.9-6.8-2.8-11-2.8-6.6,0-12.1,2.3-16.5,7-4.4,4.6-6.6,10.4-6.6,17.4s2.1,13,6.3,17.6c4.3,4.6,9.7,6.9,16.3,6.9s7.9-.9,11.2-2.7c3.1-1.8,6.8-5.2,11-10.3v23.2c-7.1,3.7-14.3,5.5-21.4,5.5-11.8,0-21.6-3.8-29.5-11.4-7.9-7.7-11.9-17.2-11.9-28.5s4-20.9,12-28.8c8-7.8,17.9-11.7,29.5-11.7s14.6,1.8,21.2,5.4Z"/>
        <path class="cls-3" d="M639.1,107.7h-54.5c.5,6.2,2.5,11.2,6.1,14.9,3.6,3.6,8.2,5.5,13.8,5.5s8-1,10.9-3.1c2.8-2.1,6-5.9,9.6-11.6l14.8,8.3c-2.3,3.9-4.7,7.3-7.3,10-2.6,2.8-5.3,5.1-8.2,6.9-2.9,1.8-6.1,3.1-9.5,3.9-3.4.8-7.1,1.2-11,1.2-11.4,0-20.5-3.6-27.3-10.9-6.9-7.3-10.3-17.1-10.3-29.2s3.3-21.8,10-29.2c6.7-7.3,15.6-11,26.7-11s20.1,3.6,26.6,10.7c6.5,7.1,9.7,16.9,9.7,29.5v4.1ZM621,93.4c-2.4-9.4-8.4-14.1-17.7-14.1s-4.1.3-6,1c-1.9.7-3.6,1.6-5.1,2.8-1.5,1.2-2.9,2.7-3.9,4.4s-1.9,3.7-2.5,5.9h35.3Z"/>
      </g>
      <g id="Layer_1-2" data-name="Layer_1">
        <path class="cls-2" d="M234,5.4c-4.8,6.3-12.4,9.7-22.6,10.3-24.6,2.6-34.7,17.8-30.3,45.7-.4-6.2,3.5-10.8,11.7-14-6.5,2.4-10.4,5-11.6,7.7,1.2-2.7,5.1-5.3,11.6-7.7h0c4.1-1.4,8.1-2.5,11.9-3.4,10.1-1.8,17.7-5,22.7-9.9,4.2-4.1,6.5-9.7,7.1-16.7.3-3.6.1-7.6-.5-12h0Z"/>
        <path class="cls-1" d="M210.8,48.4c-4.6,10-14.6,14.3-29.8,13-.5-6.2,3.5-10.9,11.8-13.9,6.8-2.2,11.9-3.6,15.3-4.1,5.2-1.5,7.8-2.2,7.8-2.2-2,1.4-3.7,3.8-5,7.3h0Z"/>
      </g>
    </g>
  </g>
</svg>