<?xml version="1.0" encoding="UTF-8"?>
<svg xmlns="http://www.w3.org/2000/svg" version="1.1" viewBox="0 0 300 300">
  <defs>
    <style>
      .cls-1 {
        fill: none;
      }

      .cls-2 {
        fill: #37cae2;
      }

      .cls-3 {
        fill: #659b59;
      }

      .cls-4 {
        fill: #fff;
      }
    </style>
  </defs>
  <!-- Generator: Adobe Illustrator 28.7.1, SVG Export Plug-In . SVG Version: 1.2.0 Build 142)  -->
  <g>
    <g id="Layer_1">
      <g id="Layer_1-2" data-name="Layer_1">
        <g id="Layer_1-2">
          <g id="Layer_1-2-2" data-name="Layer_1-2">
            <circle class="cls-1" cx="148.5" cy="146.5" r="138.5"/>
            <path class="cls-4" d="M214.1,254.2c-58.6,15.8-125-17.9-133.2-79.1-.6-4-.7-8.1-.9-12.1-1.4-.4-3-.4-4.5-.8-1.6-.2-3.3-.8-4.9-1-.9,2.1-1.3,4.6-1.9,6.9-3.5,17.7.9,36.2,9.8,51.6,27.9,49.5,90.3,52.7,137.8,34.3,1.9-1-1.1,0-2.2.2h0Z"/>
            <path class="cls-4" d="M65.7,204.7c-2.8-11.7-2.7-24.6,0-36,.6-2.9,1.5-5.5,2.3-8.3-1.4-.5-2.9-.9-4.3-1.5-10.3-3.7-19.8-10.6-26.6-19.2-.2,5.3.2,10.6.7,15.9,4.2,35.4,22.6,70.5,52.3,91.1,2.2,1.5,4.6,3,6.9,4.3-2.1-1.5-3.8-2.8-6-4.7-11.7-9.9-21.8-25.7-25.3-41.5h0Z"/>
            <path class="cls-4" d="M27.9,85c-.9,6.4-1.9,12-1.3,18.7.5,9.7,6.8,28.7,20.3,38.2,7.8,5.9,16,8.7,21.2,10,.5.1.8,0,.9-.6,0-9-1.9-18.8-5.2-27.6-3.1-8.5-8.7-17.7-14.1-24.1-4.6-5.6-8-8.4-7.3-8.6,6.4,2.4,21,19.3,25.3,29.3,3,5.4,5.7,16.9,5.5,19.1.4,4,0,9.1-.6,12v.3c0,.1,0,.2,0,.1,13-26,1.9-53.4-22-66.9-5.4-3.2-9.9-5-15.5-6.8-6.8-2.1-7-.6-7.2,6.5,0,0,0,.4,0,.4Z"/>
            <g>
              <path class="cls-4" d="M36,65.6c-1.2,1.8-2.5,3.6-3.5,5.4-.3.5-.9,1.1,0,1,5.3.7,11.3,2.4,16.1,4.3.6.2,1,.4,1.6.7,12.5,5.6,13.3,12.6,16.4,9.8.4-.5.2-1.4-.2-2.9-.4-1.3-.9-3.1-1.1-4.5-6.8-31.4,18-53.5,45.9-60.2,2.5-.3,10.2-2.6,10.4.3-1.4,5.2-4.9,10.4-5.1,16,0,1.7,1.2.7,2.3-.2,41-48,109.3,15.4,114.8,70.8,1.6,10.5,2.3,22.7.2,31.5-1.4,6.7-5.3,12.5-12.4,12.7-5.8.2-19.2,0-34.8-.4-24.5-.4-49.1-1.2-73.6-1.1-8.1.2-15.8,0-23.5.3-.7,0-1.2.2-1.4.5-.9,1.3-.3,5.4.5,7.2.4.6.8.8,1.3.8,3.4,0,16,.2,33.2.4,46.4.6,152.6,2,164.6,2.1C303.8,6.8,106.5-44.1,36.1,65.4h0v.2h0Z"/>
              <path class="cls-4" d="M265.2,221.6c-76.2,105.6-238.1,53.2-234.1-86.7-2.5-5.1-5.3-11.8-7.4-20-2.2-8.9-2.9-16.8-2.9-22.9-64.2,171,176.6,273.4,244.4,129.6Z"/>
              <path class="cls-4" d="M159.6,42.8c-12.9,4.2-26,8.8-36.9,17-37.4,30-42.9,87.1-23.7,128.9,18.6,40.3,53.6,59.4,97.5,57.5,6.8-.2,13.7-.7,20.5-1.3-13.6,2.5-27.3,4.2-41.2,3.5-61.2-3-98-61.2-93-118.8,2.4-27.7,14.9-56,38.2-72.1,11.6-7.8,25.1-11.7,38.6-14.6h0Z"/>
            </g>
            <g id="_x36_QZjKA.tif">
              <path class="cls-4" d="M190.8,42.9c0,.4-.4.7-1,1.1-2.7,1.5-5.4,3.2-8,5.3-4,3.3-7.7,7.2-11.7,10.5-4.6,3.9-10,6.7-15.6,8.5-9.4,3.2-23.9,4-31.9-5-.5-3.9,19.4-12.4,22.6-13.9,3.5-1.5,7.4-2.7,11.5-3.9,5.1-1.5,11.8-3.5,12.3-3.4-16.9-1.9-34,5.2-46.8,13.1-2.2,1.5-.4-3.7.2-5.7,2.2-7,6.1-13.1,11.7-17.3,12-9.7,27.4-8.2,40.4-.7,5.3,2.7,10,6.5,14.7,9.9.9.6,1.6,1.1,1.7,1.6h0Z"/>
            </g>
            <path class="cls-3" d="M62.7,103.4"/>
            <path class="cls-2" d="M134,78"/>
            <path class="cls-4" d="M116.3,21.1c-.7-.7-2.6,0-3.6.3-15.5,5.2-31.1,14.2-38.7,28.2-6.3,11.6-6.6,26.4-2.4,39.5.2.5.5.8.6,0,.4-5.8.6-11.8,2-17.3,2.7-16,22.4-37.6,29.1-40.7.3-.1.6-.2.6.1-.9,2.7-12.1,14.4-15.2,19.6-9.1,12.5-14.5,35.4-14.1,39.3,0,.5,0,.9.7.9,2.4-.5,5.2-2.8,7.4-4.1,1.7-1.1,3-2,4.6-3.3,13.4-10.7,27.5-22.2,27-39.2,0-4-1-8.3-.6-12.2,0-2.6,1.4-5.1,2.3-7.8.3-1,.9-2.4.4-3.3h0Z"/>
            <path class="cls-2" d="M121,112"/>
            <path class="cls-1" d="M58.5,152"/>
          </g>
        </g>
      </g>
    </g>
  </g>
</svg>