<?xml version="1.0" encoding="UTF-8"?>
<svg xmlns="http://www.w3.org/2000/svg" version="1.1" viewBox="0 0 576.3 130.3">
  <defs>
    <style>
      .cls-1 {
        fill: #91c581;
      }

      .cls-1, .cls-2 {
        fill-rule: evenodd;
      }

      .cls-2, .cls-3 {
        fill: #394459;
      }
    </style>
  </defs>
  <!-- Generator: Adobe Illustrator 28.7.1, SVG Export Plug-In . SVG Version: 1.2.0 Build 142)  -->
  <g>
    <g id="Layer_1">
      <g>
        <g id="Layer_1-2" data-name="Layer_1">
          <g id="Layer_1-2">
            <path class="cls-2" d="M195.3,7.5c-4.2,5.6-10.8,8.7-19.6,9.2-21.4,2.3-30.1,15.9-26.3,40.9-.3-5.6,3-9.7,10.2-12.5-5.6,2.1-9,4.5-10.1,6.9,1-2.4,4.4-4.7,10.1-6.9h0c3.6-1.3,7-2.2,10.3-3,8.8-1.6,15.4-4.5,19.7-8.9,3.6-3.7,5.6-8.7,6.2-15,.3-3.2,0-6.8-.4-10.7h0Z"/>
            <path class="cls-1" d="M175.1,46c-4,9-12.7,12.8-25.9,11.6-.4-5.6,3-9.8,10.2-12.5,5.9-2,10.3-3.2,13.3-3.7,4.5-1.3,6.8-2,6.8-2-1.7,1.3-3.2,3.4-4.3,6.5h0Z"/>
          </g>
        </g>
        <g>
          <path class="cls-3" d="M38.1,128.6c-7,0-12.9-1.6-17.7-4.7-4.8-3.1-8.4-7.2-10.8-12.2-2.4-5-3.7-10.3-3.7-16s1.6-12.9,4.8-18.4c3.2-5.5,7.6-9.9,13.2-13.1,5.6-3.2,11.7-4.8,18.5-4.8s11.6,1.6,15.2,4.9c3.6,3.3,5.4,8.1,5.4,14.5s-.1,2.6-.4,3.5c-.3.9-.8,1.3-1.6,1.3h-11.7c.5-6.8-.4-12-2.6-15.5-2.2-3.5-5.5-5.3-9.9-5.3s-9.9,2.4-13,7.1c-3.1,4.8-4.7,11.2-4.7,19.2s1,12.2,3.1,17.1c2,4.9,5,8.8,9,11.5,4,2.7,8.8,4.1,14.5,4.1s6.8-.5,9.3-1.5c2.4-1,5-2.3,7.6-3.7.2-.2.5,0,.9.4.4.5.5.9.3,1.3-4.1,3.7-8.2,6.4-12.4,8-4.2,1.6-8.6,2.4-13.1,2.4ZM15.1,83.8l-.2-2.5,38.1-.7v3.1l-37.9.2Z"/>
          <path class="cls-3" d="M144.3,61c.2,0,.3.3.3,1s-.1,1-.3,1c-2.9,0-5.5,1-7.6,3-2.2,2-4.2,5.4-6.3,10.3l-21.1,50.2c-.2.6-.9.8-1.9.8s-1.6-.3-1.9-.8l-24.7-51.3c-2.4-5.1-4.4-8.4-5.9-9.9-1.6-1.5-3.5-2.2-5.8-2.2s-.5-.3-.5-1,.2-1,.5-1c1.7,0,3.6,0,5.8.2,2.2.1,4.6.2,7.3.2,4.2,0,7.8,0,10.7-.2,2.9-.1,5.7-.2,8.2-.2s.5.3.5,1-.2,1-.5,1c-3.5,0-6.3.4-8.2,1.3-2,.8-2.4,2.6-1.1,5.4l21.4,43.9-6.1,9.3,19.5-47.1c1.7-4.3,1.6-7.5-.3-9.6-1.9-2.1-5.7-3.1-11.2-3.1s-.3-.3-.3-1,.1-1,.3-1c2.7,0,5.3,0,7.7.2,2.4.1,5.6.2,9.4.2s4.6,0,6.2-.2c1.6-.1,3.6-.2,5.9-.2Z"/>
          <path class="cls-3" d="M152.3,126.6c-.3,0-.5-.3-.5-1s.2-1,.5-1c4.1,0,6.8-.8,8.2-2.3,1.4-1.5,2-4.7,2-9.4v-31.3c0-4-.4-6.9-1.2-8.7-.8-1.8-2.2-2.7-4.2-2.7s-2,.2-3.1.5-2.6.9-4.2,1.7c-.5.1-.8-.1-1.1-.8-.3-.6-.2-1,.3-1.3l23.1-10.7c.3-.1.6-.2.7-.2.3,0,.7.2,1.1.5.4.3.6.7.6,1.2,0,1,0,3.2-.2,6.6-.1,3.4-.2,7.9-.2,13.4v31.6c0,4.8.7,7.9,2,9.4,1.3,1.5,4.1,2.3,8.2,2.3s.5.3.5,1-.2,1-.5,1c-2,0-4.4,0-7.2-.2-2.8-.1-5.7-.2-8.8-.2s-6,0-8.7.2c-2.7.1-5.2.2-7.3.2Z"/>
          <path class="cls-3" d="M222.4,128.8c-4.8,0-9.2-1.3-13.2-4-4-2.7-7.3-6.4-9.7-11.3-2.4-4.9-3.7-10.7-3.7-17.3s1.2-12.4,3.7-17.1c2.4-4.7,5.6-8.5,9.5-11.5,3.9-2.9,8.1-5.2,12.7-6.6,4.5-1.5,8.8-2.2,12.9-2.2s7.8.6,11.3,1.9c3.5,1.2,6.7,2.9,9.6,4.9l-2.7,12.2c-2.6-4.6-5.6-8.4-9-11.1-3.4-2.8-7.8-4.2-13.1-4.2s-11.9,2.3-15.9,7c-4,4.6-6,11.8-6,21.4s.9,12,2.8,16.7c1.9,4.6,4.4,8.2,7.6,10.7,3.2,2.5,6.7,3.7,10.7,3.7s9.3-1.4,13.1-4.1c3.7-2.7,7.3-6,10.7-9.9l1.5,1.4c-2.4,2.7-5.2,5.6-8.3,8.6-3.2,3-6.8,5.6-10.8,7.7-4,2.1-8.6,3.1-13.7,3.1ZM261.5,5v102.5c0,4,.5,6.8,1.4,8.6.9,1.8,2.4,2.6,4.4,2.6s2.2-.1,3.7-.4c1.4-.3,3-.9,4.7-1.8.5-.2.8,0,1.1.6.3.6.3,1,0,1.3l-20.2,9.7c-.5.2-.9.3-1.2.3-1.4,0-2.6-1.4-3.7-4.1-1.1-2.7-1.6-6.6-1.6-11.6V25.6c0-4.1-.4-7-1.1-8.8-.7-1.8-2.1-2.7-4.2-2.7s-2.1.2-3.2.6c-1.1.4-2.5,1-4.2,1.8-.5.1-.8-.2-1.1-.8-.3-.7-.3-1.1,0-1.2l22.6-10.9c.2-.1.5-.2.9-.2s.7.2,1.2.5c.5.3.7.7.7,1.2Z"/>
          <path class="cls-3" d="M315,128.6c-7,0-12.9-1.6-17.7-4.7-4.8-3.1-8.4-7.2-10.8-12.2-2.4-5-3.7-10.3-3.7-16s1.6-12.9,4.8-18.4c3.2-5.5,7.6-9.9,13.2-13.1,5.6-3.2,11.7-4.8,18.5-4.8s11.6,1.6,15.2,4.9c3.6,3.3,5.4,8.1,5.4,14.5s-.1,2.6-.4,3.5c-.3.9-.8,1.3-1.6,1.3h-11.7c.5-6.8-.4-12-2.6-15.5-2.2-3.5-5.5-5.3-9.9-5.3s-9.9,2.4-13,7.1c-3.1,4.8-4.7,11.2-4.7,19.2s1,12.2,3.1,17.1c2,4.9,5,8.8,9,11.5,4,2.7,8.8,4.1,14.5,4.1s6.8-.5,9.3-1.5c2.4-1,5-2.3,7.6-3.7.2-.2.5,0,.9.4.4.5.5.9.3,1.3-4.1,3.7-8.2,6.4-12.4,8-4.2,1.6-8.6,2.4-13.1,2.4ZM292.1,83.8l-.2-2.5,38.1-.7v3.1l-37.9.2Z"/>
          <path class="cls-3" d="M354.1,126.6c-.3,0-.5-.3-.5-1s.2-1,.5-1c4.1,0,6.8-.8,8.1-2.3,1.3-1.5,2-4.7,2-9.4v-33.2c0-3.6-.4-6.3-1.3-8s-2.3-2.5-4.3-2.5-2.4.2-3.9.6c-1.5.4-3.2,1-5.1,1.8-.5.2-.8,0-1-.6-.2-.6-.2-1,.2-1.3l20.9-10c.5-.1.8-.2,1-.2,1,0,2.2,1.2,3.4,3.7,1.2,2.5,1.9,6.1,1.9,10.7v38.9c0,4.8.7,7.9,2,9.4,1.3,1.5,4.1,2.3,8.2,2.3s.5.3.5,1-.2,1-.5,1c-2.2,0-4.6,0-7.3-.2-2.7-.1-5.6-.2-8.7-.2s-6,0-8.8.2c-2.8.1-5.2.2-7.2.2ZM399.8,126.6c-.3,0-.5-.3-.5-1s.2-1,.5-1c4.1,0,6.8-.8,8.1-2.3,1.3-1.5,2-4.7,2-9.4v-26.7c0-6.5-1.2-11.2-3.6-14.4-2.4-3.1-6.2-4.7-11.4-4.7s-8,1.2-12,3.5c-4,2.3-7.5,5.5-10.3,9.6l-.7-2c4.6-6.3,9.4-11.2,14.4-14.5,4.9-3.3,10.1-4.9,15.6-4.9s11.1,1.8,14.5,5.4c3.5,3.6,5.2,8.8,5.2,15.5v33.2c0,4.8.7,7.9,2,9.4,1.3,1.5,4.1,2.3,8.2,2.3s.5.3.5,1-.2,1-.5,1c-2.2,0-4.6,0-7.3-.2-2.7-.1-5.6-.2-8.7-.2s-6,0-8.8.2c-2.8.1-5.2.2-7.2.2Z"/>
          <path class="cls-3" d="M474.6,128.6c-7.8,0-14.2-1.7-19.1-5-4.9-3.3-8.6-7.6-10.9-12.8-2.3-5.2-3.5-10.4-3.5-15.7s1.1-10.7,3.4-15.1,5.2-8.2,8.9-11.2c3.7-3.1,7.8-5.4,12.3-7,4.5-1.6,9-2.4,13.4-2.4s6.3.5,9.4,1.4c3.1.9,5.7,2.2,7.7,3.8,2,1.6,3.1,3.6,3.1,5.9s-.6,3-1.8,4.3c-1.2,1.3-2.9,2-5.2,2s-3.9-.6-5.3-1.9c-1.4-1.2-2.4-2.8-3.2-4.8-1-2.3-2.3-4.1-3.7-5.4-1.5-1.3-3.8-2-7-2-6,0-10.7,2.5-14,7.5-3.3,5-5,11.5-5,19.5s1,11,2.9,15.9c1.9,4.9,4.9,8.9,9,11.8,4.1,2.9,9.4,4.4,16,4.4s6.1-.4,8.9-1.3c2.8-.8,5.5-2.2,8.1-4,.3-.2.7-.1,1.1.3.4.5.4.8,0,1-3.9,3.5-7.8,6.1-11.9,7.9s-8.7,2.6-13.8,2.6Z"/>
          <path class="cls-3" d="M542.8,128.6c-7,0-12.9-1.6-17.7-4.7-4.8-3.1-8.4-7.2-10.8-12.2-2.4-5-3.7-10.3-3.7-16s1.6-12.9,4.8-18.4c3.2-5.5,7.6-9.9,13.2-13.1,5.6-3.2,11.7-4.8,18.5-4.8s11.6,1.6,15.2,4.9c3.6,3.3,5.4,8.1,5.4,14.5s-.1,2.6-.4,3.5c-.3.9-.8,1.3-1.6,1.3h-11.7c.5-6.8-.4-12-2.6-15.5-2.2-3.5-5.5-5.3-9.9-5.3s-9.9,2.4-13,7.1c-3.1,4.8-4.7,11.2-4.7,19.2s1,12.2,3.1,17.1c2,4.9,5,8.8,9,11.5,4,2.7,8.8,4.1,14.4,4.1s6.8-.5,9.3-1.5c2.4-1,5-2.3,7.6-3.7.2-.2.5,0,.9.4.4.5.5.9.3,1.3-4.1,3.7-8.2,6.4-12.4,8-4.2,1.6-8.6,2.4-13.1,2.4ZM519.9,83.8l-.2-2.5,38.1-.7v3.1l-37.9.2Z"/>
        </g>
      </g>
    </g>
  </g>
</svg>