<?xml version="1.0" encoding="UTF-8"?>
<svg xmlns="http://www.w3.org/2000/svg" version="1.1" viewBox="0 0 500 500">
  <defs>
    <style>
      .cls-1 {
        fill: #91c581;
      }

      .cls-1, .cls-2 {
        fill-rule: evenodd;
      }

      .cls-2 {
        fill: #394459;
      }
    </style>
  </defs>
  <!-- Generator: Adobe Illustrator 28.7.1, SVG Export Plug-In . SVG Version: 1.2.0 Build 142)  -->
  <g>
    <g id="Layer_1">
      <path class="cls-2" d="M429.4,49.9c-32.3,41.8-82.6,64.6-150.8,68.4-164.2,17.1-231.5,118.7-202.1,304.8-3-41.3,23.1-72.3,78.3-93-43.4,15.9-69.2,33-77.2,51.3,8-18.3,33.8-35.4,77.3-51.3,0,0,0,0,0,0,0,0,0,0,.1,0,27.3-9.3,53.7-16.9,79.1-23,67.6-11.7,118-33.6,151.2-65.8,27.8-27.3,43.6-64.4,47.6-111.2,2-24.2.9-50.9-3.5-80.2Z"/>
      <path class="cls-1" d="M275.2,336.7c-30.8,66.5-97,95.3-198.7,86.5-3-41.4,23.1-72.4,78.4-93,45.2-15,79.1-24.2,101.7-27.4,34.5-9.9,51.8-14.9,51.8-14.9-13.4,9.1-24.5,25.4-33.1,48.8Z"/>
    </g>
  </g>
</svg>